# xmcd
#
# Track frame offsets: 
#        150
#        14582
#        30687
#        49350
#        63785
#        79262
#        89235
#        107397
#        121015
#        135417
#        153155
#
# Disc length: 2192 seconds
#
# Revision: 3
# Processed by: cddbd v1.5.1PL0 Copyright (c) Steve Scherf et al.
# Submitted via: ExactAudioCopy v0.90b4
#
DISCID=86088e0b
DTITLE=Randy Travis - Greatest Hits Volume Two
DYEAR=1992
DGENRE=Country
TTITLE0=Look Heart, No Hands
TTITLE1=Forever and Ever, Amen
TTITLE2=No Place Like Home
TTITLE3=Is It Still Over?
TTITLE4=He Walked on Water
TTITLE5=Take Another Swing at Me
TTITLE6=Promises
TTITLE7=Diggin' Up Bones
TTITLE8=I Won't Need You Anymore (Always and Forever)
TTITLE9=It's Just aMatter of Time
TTITLE10=I'd Do It All Again with You
EXTD=YEAR: 1992
EXTT0=
EXTT1=
EXTT2=
EXTT3=
EXTT4=
EXTT5=
EXTT6=
EXTT7=
EXTT8=
EXTT9=
EXTT10=
PLAYORDER=
